<svg id="visual" viewBox="0 0 900 600" width="900" height="600" xmlns="http://www.w3.org/2000/svg" xmlns:xlink="http://www.w3.org/1999/xlink" version="1.1"><rect x="0" y="0" width="900" height="600" fill="#3182F6"></rect><defs><linearGradient id="grad1_0" x1="33.3%" y1="0%" x2="100%" y2="100%"><stop offset="20%" stop-color="#0051ff" stop-opacity="1"></stop><stop offset="80%" stop-color="#0051ff" stop-opacity="1"></stop></linearGradient></defs><defs><linearGradient id="grad1_1" x1="33.3%" y1="0%" x2="100%" y2="100%"><stop offset="20%" stop-color="#0051ff" stop-opacity="1"></stop><stop offset="80%" stop-color="#005cff" stop-opacity="1"></stop></linearGradient></defs><defs><linearGradient id="grad1_2" x1="33.3%" y1="0%" x2="100%" y2="100%"><stop offset="20%" stop-color="#0067fe" stop-opacity="1"></stop><stop offset="80%" stop-color="#005cff" stop-opacity="1"></stop></linearGradient></defs><defs><linearGradient id="grad1_3" x1="33.3%" y1="0%" x2="100%" y2="100%"><stop offset="20%" stop-color="#0067fe" stop-opacity="1"></stop><stop offset="80%" stop-color="#0470fc" stop-opacity="1"></stop></linearGradient></defs><defs><linearGradient id="grad1_4" x1="33.3%" y1="0%" x2="100%" y2="100%"><stop offset="20%" stop-color="#1e79f9" stop-opacity="1"></stop><stop offset="80%" stop-color="#0470fc" stop-opacity="1"></stop></linearGradient></defs><defs><linearGradient id="grad1_5" x1="33.3%" y1="0%" x2="100%" y2="100%"><stop offset="20%" stop-color="#1e79f9" stop-opacity="1"></stop><stop offset="80%" stop-color="#3182f6" stop-opacity="1"></stop></linearGradient></defs><defs><linearGradient id="grad2_0" x1="0%" y1="0%" x2="66.7%" y2="100%"><stop offset="20%" stop-color="#0051ff" stop-opacity="1"></stop><stop offset="80%" stop-color="#0051ff" stop-opacity="1"></stop></linearGradient></defs><defs><linearGradient id="grad2_1" x1="0%" y1="0%" x2="66.7%" y2="100%"><stop offset="20%" stop-color="#005cff" stop-opacity="1"></stop><stop offset="80%" stop-color="#0051ff" stop-opacity="1"></stop></linearGradient></defs><defs><linearGradient id="grad2_2" x1="0%" y1="0%" x2="66.7%" y2="100%"><stop offset="20%" stop-color="#005cff" stop-opacity="1"></stop><stop offset="80%" stop-color="#0067fe" stop-opacity="1"></stop></linearGradient></defs><defs><linearGradient id="grad2_3" x1="0%" y1="0%" x2="66.7%" y2="100%"><stop offset="20%" stop-color="#0470fc" stop-opacity="1"></stop><stop offset="80%" stop-color="#0067fe" stop-opacity="1"></stop></linearGradient></defs><defs><linearGradient id="grad2_4" x1="0%" y1="0%" x2="66.7%" y2="100%"><stop offset="20%" stop-color="#0470fc" stop-opacity="1"></stop><stop offset="80%" stop-color="#1e79f9" stop-opacity="1"></stop></linearGradient></defs><defs><linearGradient id="grad2_5" x1="0%" y1="0%" x2="66.7%" y2="100%"><stop offset="20%" stop-color="#3182f6" stop-opacity="1"></stop><stop offset="80%" stop-color="#1e79f9" stop-opacity="1"></stop></linearGradient></defs><g transform="translate(900, 0)"><path d="M0 432.7C-34.3 384.6 -68.6 336.6 -135.5 327.1C-202.4 317.5 -301.9 346.5 -305.9 305.9C-309.9 265.4 -218.4 155.2 -223.6 92.6C-228.8 30 -330.7 15 -432.7 0L0 0Z" fill="#287ef8"></path><path d="M0 360.6C-28.6 320.5 -57.1 280.5 -112.9 272.5C-168.7 264.6 -251.6 288.8 -255 255C-258.3 221.1 -182 129.3 -186.3 77.2C-190.6 25 -275.6 12.5 -360.6 0L0 0Z" fill="#1375fb"></path><path d="M0 288.4C-22.9 256.4 -45.7 224.4 -90.3 218C-134.9 211.7 -201.3 231 -204 204C-206.6 176.9 -145.6 103.5 -149.1 61.7C-152.5 20 -220.5 10 -288.4 0L0 0Z" fill="#006cfd"></path><path d="M0 216.3C-17.1 192.3 -34.3 168.3 -67.7 163.5C-101.2 158.8 -151 173.3 -153 153C-155 132.7 -109.2 77.6 -111.8 46.3C-114.4 15 -165.4 7.5 -216.3 0L0 0Z" fill="#0062fe"></path><path d="M0 144.2C-11.4 128.2 -22.9 112.2 -45.2 109C-67.5 105.8 -100.6 115.5 -102 102C-103.3 88.5 -72.8 51.7 -74.5 30.9C-76.3 10 -110.2 5 -144.2 0L0 0Z" fill="#0057ff"></path><path d="M0 72.1C-5.7 64.1 -11.4 56.1 -22.6 54.5C-33.7 52.9 -50.3 57.8 -51 51C-51.7 44.2 -36.4 25.9 -37.3 15.4C-38.1 5 -55.1 2.5 -72.1 0L0 0Z" fill="#0051ff"></path></g><g transform="translate(0, 600)"><path d="M0 -432.7C27.3 -342.6 54.6 -252.6 94.1 -227.3C133.7 -202 185.6 -241.3 244 -244C302.3 -246.6 367.2 -212.4 399.7 -165.6C432.3 -118.8 432.5 -59.4 432.7 0L0 0Z" fill="#287ef8"></path><path d="M0 -360.6C22.7 -285.5 45.5 -210.5 78.5 -189.4C111.4 -168.3 154.7 -201.1 203.3 -203.3C251.9 -205.5 306 -177 333.1 -138C360.2 -99 360.4 -49.5 360.6 0L0 0Z" fill="#1375fb"></path><path d="M0 -288.4C18.2 -228.4 36.4 -168.4 62.8 -151.5C89.1 -134.6 123.7 -160.9 162.6 -162.6C201.5 -164.4 244.8 -141.6 266.5 -110.4C288.2 -79.2 288.3 -39.6 288.4 0L0 0Z" fill="#006cfd"></path><path d="M0 -216.3C13.6 -171.3 27.3 -126.3 47.1 -113.6C66.9 -101 92.8 -120.7 122 -122C151.2 -123.3 183.6 -106.2 199.9 -82.8C216.1 -59.4 216.2 -29.7 216.3 0L0 0Z" fill="#0062fe"></path><path d="M0 -144.2C9.1 -114.2 18.2 -84.2 31.4 -75.8C44.6 -67.3 61.9 -80.4 81.3 -81.3C100.8 -82.2 122.4 -70.8 133.2 -55.2C144.1 -39.6 144.2 -19.8 144.2 0L0 0Z" fill="#0057ff"></path><path d="M0 -72.1C4.5 -57.1 9.1 -42.1 15.7 -37.9C22.3 -33.7 30.9 -40.2 40.7 -40.7C50.4 -41.1 61.2 -35.4 66.6 -27.6C72 -19.8 72.1 -9.9 72.1 0L0 0Z" fill="#0051ff"></path></g></svg>