<svg width="48" height="32" viewBox="0 0 48 32" fill="none" xmlns="http://www.w3.org/2000/svg">
<path d="M24.0052 25.3189C26.6048 25.3189 28.8127 24.4124 30.6289 22.5994C32.4451 20.7865 33.3532 18.585 33.3532 15.9949C33.3532 13.4048 32.4433 11.205 30.6237 9.39543C28.8041 7.5859 26.5945 6.68114 23.9948 6.68114C21.3952 6.68114 19.1873 7.58762 17.3711 9.40057C15.5549 11.2135 14.6468 13.415 14.6468 16.0051C14.6468 18.5952 15.5567 20.795 17.3763 22.6046C19.1959 24.4141 21.4055 25.3189 24.0052 25.3189ZM24 22.1714C22.2794 22.1714 20.8169 21.5714 19.6125 20.3714C18.4081 19.1714 17.8059 17.7143 17.8059 16C17.8059 14.2857 18.4081 12.8286 19.6125 11.6286C20.8169 10.4286 22.2794 9.82857 24 9.82857C25.7206 9.82857 27.1831 10.4286 28.3875 11.6286C29.5919 12.8286 30.1941 14.2857 30.1941 16C30.1941 17.7143 29.5919 19.1714 28.3875 20.3714C27.1831 21.5714 25.7206 22.1714 24 22.1714ZM24.0029 32C18.7275 32 13.9208 30.5501 9.58256 27.6503C5.24437 24.7509 2.05018 20.8674 0 16C2.05018 11.1326 5.24322 7.24914 9.57912 4.34971C13.9154 1.4499 18.7214 0 23.9971 0C29.2725 0 34.0792 1.4499 38.4174 4.34971C42.7556 7.24914 45.9498 11.1326 48 16C45.9498 20.8674 42.7568 24.7509 38.4209 27.6503C34.0846 30.5501 29.2786 32 24.0029 32ZM24 28.5714C28.3206 28.5714 32.2875 27.4381 35.9008 25.1714C39.514 22.9048 42.2765 19.8476 44.1883 16C42.2765 12.1524 39.514 9.09524 35.9008 6.82857C32.2875 4.5619 28.3206 3.42857 24 3.42857C19.6794 3.42857 15.7125 4.5619 12.0992 6.82857C8.48597 9.09524 5.72346 12.1524 3.81169 16C5.72346 19.8476 8.48597 22.9048 12.0992 25.1714C15.7125 27.4381 19.6794 28.5714 24 28.5714Z" fill="#9E9E9E"/>
</svg>
