<svg width="39" height="35" viewBox="0 0 39 35" fill="none" xmlns="http://www.w3.org/2000/svg">
<path d="M19.5 35L17.2344 32.9781C13.8318 29.9139 11.018 27.2807 8.79296 25.0787C6.56791 22.8764 4.8047 20.9164 3.50333 19.1986C2.20196 17.4812 1.29282 15.9145 0.775895 14.4983C0.258632 13.0825 0 11.6458 0 10.1882C0 7.29644 0.982184 4.87539 2.94655 2.92503C4.91126 0.975009 7.35013 0 10.2632 0C12.0551 0 13.7485 0.416018 15.3434 1.24805C16.9383 2.08009 18.3238 3.2733 19.5 4.82767C20.6762 3.2733 22.0617 2.08009 23.6566 1.24805C25.2515 0.416018 26.9449 0 28.7368 0C31.6499 0 34.0887 0.975009 36.0534 2.92503C38.0178 4.87539 39 7.29644 39 10.1882C39 11.6458 38.7414 13.0825 38.2241 14.4983C37.7072 15.9145 36.798 17.4812 35.4967 19.1986C34.1953 20.9164 32.4353 22.8764 30.2168 25.0787C27.9986 27.2807 25.1815 29.9139 21.7656 32.9781L19.5 35Z" fill="#F83BAA"/>
</svg>
