<svg width="19" height="17" viewBox="0 0 19 17" fill="none" xmlns="http://www.w3.org/2000/svg">
<path d="M9.5 17L8.39625 16.018C6.73858 14.5296 5.36775 13.2506 4.28375 12.1811C3.19975 11.1114 2.34075 10.1594 1.70675 9.32505C1.07275 8.49089 0.629833 7.72988 0.378 7.04203C0.126 6.35435 0 5.65652 0 4.94855C0 3.54399 0.4785 2.36805 1.4355 1.42073C2.39267 0.473576 3.58083 0 5 0C5.873 0 6.698 0.202066 7.475 0.606197C8.252 1.01033 8.927 1.58989 9.5 2.34487C10.073 1.58989 10.748 1.01033 11.525 0.606197C12.302 0.202066 13.127 0 14 0C15.4192 0 16.6073 0.473576 17.5645 1.42073C18.5215 2.36805 19 3.54399 19 4.94855C19 5.65652 18.874 6.35435 18.622 7.04203C18.3702 7.72988 17.9272 8.49089 17.2932 9.32505C16.6592 10.1594 15.8018 11.1114 14.721 12.1811C13.6403 13.2506 12.2679 14.5296 10.6038 16.018L9.5 17ZM9.5 14.9941C11.1 13.5693 12.4167 12.348 13.45 11.3302C14.4833 10.3126 15.3 9.42855 15.9 8.67802C16.5 7.92749 16.9167 7.26101 17.15 6.67856C17.3833 6.09628 17.5 5.51961 17.5 4.94855C17.5 3.95884 17.1667 3.13408 16.5 2.47427C15.8333 1.81447 15 1.48456 14 1.48456C13.2103 1.48456 12.4805 1.70626 11.8105 2.14965C11.1407 2.5932 10.6102 3.21021 10.2192 4.00065H8.78075C8.38325 3.20377 7.85117 2.5852 7.1845 2.14495C6.51783 1.70469 5.78967 1.48456 5 1.48456C4.00633 1.48456 3.17458 1.81447 2.50475 2.47427C1.83492 3.13408 1.5 3.95884 1.5 4.94855C1.5 5.51961 1.61667 6.09628 1.85 6.67856C2.08333 7.26101 2.5 7.92749 3.1 8.67802C3.7 9.42855 4.51667 10.311 5.55 11.3255C6.58333 12.34 7.9 13.5628 9.5 14.9941Z" fill="#111111"/>
</svg>
