<svg width="21" height="24" viewBox="0 0 21 24" fill="none" xmlns="http://www.w3.org/2000/svg">
<path d="M10.5 2C5.67 2 1.75 6.48 1.75 12C1.75 17.52 5.67 22 10.5 22C15.33 22 19.25 17.52 19.25 12C19.25 6.48 15.33 2 10.5 2ZM10.5 3C14.84 3 18.375 7.04 18.375 12C18.375 13.42 18.0775 14.76 17.5612 15.96C16.2225 14.24 14.0787 13.07 11.1037 12.93C11.9138 12.7687 12.6482 12.2863 13.1778 11.5675C13.7075 10.8488 13.9986 9.9397 14 9C14 6.79 12.4338 5 10.5 5C8.56625 5 7 6.79 7 9C7 10.97 8.25125 12.6 9.89625 12.93C6.92125 13.07 4.7775 14.24 3.43875 15.96C2.9225 14.76 2.625 13.42 2.625 12C2.625 7.04 6.16 3 10.5 3ZM7.875 9C7.875 7.35 9.05625 6 10.5 6C11.9438 6 13.125 7.35 13.125 9C13.125 10.65 11.9438 12 10.5 12C9.05625 12 7.875 10.65 7.875 9ZM10.5 21C7.735 21 5.3025 19.36 3.89375 16.88C5.25875 14.93 7.53375 13.9 10.5 13.9C13.4663 13.9 15.7412 14.93 17.1062 16.88C15.6975 19.36 13.265 21 10.5 21Z" fill="#0051FF"/>
</svg>
