<svg width="34" height="38" viewBox="0 0 34 38" fill="none" xmlns="http://www.w3.org/2000/svg">
<path d="M28.611 38C27.114 38 25.843 37.4765 24.798 36.4295C23.7533 35.3825 23.231 34.1112 23.231 32.6155C23.231 32.4155 23.3002 31.9295 23.4385 31.1575L9.2155 22.7845C8.7335 23.2845 8.16083 23.6762 7.4975 23.9595C6.83417 24.2428 6.1235 24.3845 5.3655 24.3845C3.87517 24.3845 2.60833 23.8588 1.565 22.8075C0.521667 21.7562 0 20.487 0 19C0 17.513 0.521667 16.2438 1.565 15.1925C2.60833 14.1412 3.87517 13.6155 5.3655 13.6155C6.1235 13.6155 6.83417 13.7572 7.4975 14.0405C8.16083 14.3238 8.7335 14.7155 9.2155 15.2155L23.4385 6.8615C23.3592 6.6155 23.3047 6.3745 23.275 6.1385C23.2457 5.9025 23.231 5.65117 23.231 5.3845C23.231 3.88883 23.7548 2.6175 24.8025 1.5705C25.8505 0.523499 27.123 0 28.62 0C30.117 0 31.3878 0.524 32.4325 1.572C33.4775 2.61967 34 3.892 34 5.389C34 6.886 33.4765 8.157 32.4295 9.202C31.3825 10.2467 30.1112 10.769 28.6155 10.769C27.8538 10.769 27.1455 10.6242 26.4905 10.3345C25.8352 10.0448 25.2665 9.65 24.7845 9.15L10.5615 17.523C10.6408 17.7693 10.6953 18.0103 10.725 18.246C10.7543 18.482 10.769 18.7333 10.769 19C10.769 19.2667 10.7543 19.518 10.725 19.754C10.6953 19.9897 10.6408 20.2307 10.5615 20.477L24.7845 28.85C25.2665 28.35 25.8352 27.9552 26.4905 27.6655C27.1455 27.3758 27.8538 27.231 28.6155 27.231C30.1112 27.231 31.3825 27.7548 32.4295 28.8025C33.4765 29.8505 34 31.123 34 32.62C34 34.117 33.476 35.3878 32.428 36.4325C31.3803 37.4775 30.108 38 28.611 38ZM28.6155 35C29.2912 35 29.8575 34.7715 30.3145 34.3145C30.7715 33.8575 31 33.2912 31 32.6155C31 31.9398 30.7715 31.3735 30.3145 30.9165C29.8575 30.4592 29.2912 30.2305 28.6155 30.2305C27.9398 30.2305 27.3735 30.4592 26.9165 30.9165C26.4592 31.3735 26.2305 31.9398 26.2305 32.6155C26.2305 33.2912 26.4592 33.8575 26.9165 34.3145C27.3735 34.7715 27.9398 35 28.6155 35ZM5.3655 21.3845C6.0465 21.3845 6.61733 21.156 7.078 20.699C7.539 20.242 7.7695 19.6757 7.7695 19C7.7695 18.3243 7.539 17.758 7.078 17.301C6.61733 16.844 6.0465 16.6155 5.3655 16.6155C4.69517 16.6155 4.13333 16.844 3.68 17.301C3.22667 17.758 3 18.3243 3 19C3 19.6757 3.22667 20.242 3.68 20.699C4.13333 21.156 4.69517 21.3845 5.3655 21.3845ZM28.6155 7.7695C29.2912 7.7695 29.8575 7.54083 30.3145 7.0835C30.7715 6.6265 31 6.06017 31 5.3845C31 4.70883 30.7715 4.1425 30.3145 3.6855C29.8575 3.2285 29.2912 3 28.6155 3C27.9398 3 27.3735 3.2285 26.9165 3.6855C26.4592 4.1425 26.2305 4.70883 26.2305 5.3845C26.2305 6.06017 26.4592 6.6265 26.9165 7.0835C27.3735 7.54083 27.9398 7.7695 28.6155 7.7695Z" fill="#9E9E9E"/>
</svg>
