<svg width="16" height="16" viewBox="0 0 16 16" fill="none" xmlns="http://www.w3.org/2000/svg">
<path d="M10.2249 10.2249C9.89988 10.5499 9.51404 10.8077 9.0894 10.9836C8.66476 11.1595 8.20963 11.25 7.75 11.25C7.29037 11.25 6.83524 11.1595 6.4106 10.9836C5.98596 10.8077 5.60012 10.5499 5.27511 10.2249M14.75 7.75C14.75 8.66925 14.5689 9.57951 14.2172 10.4288C13.8654 11.2781 13.3498 12.0497 12.6997 12.6997C12.0497 13.3498 11.2781 13.8654 10.4288 14.2172C9.57951 14.5689 8.66925 14.75 7.75 14.75C6.83075 14.75 5.9205 14.5689 5.07122 14.2172C4.22194 13.8654 3.45026 13.3498 2.80025 12.6997C2.15024 12.0497 1.63463 11.2781 1.28284 10.4288C0.93106 9.57951 0.75 8.66925 0.75 7.75C0.75 5.89348 1.4875 4.11301 2.80025 2.80025C4.11301 1.4875 5.89348 0.75 7.75 0.75C9.60652 0.75 11.387 1.4875 12.6997 2.80025C14.0125 4.11301 14.75 5.89348 14.75 7.75ZM6 6C6 6.322 5.86933 6.58333 5.70833 6.58333C5.54733 6.58333 5.41667 6.322 5.41667 6C5.41667 5.678 5.54733 5.41667 5.70833 5.41667C5.86933 5.41667 6 5.678 6 6ZM5.70833 6H5.71456V6.01167H5.70833V6ZM10.0833 6C10.0833 6.322 9.95267 6.58333 9.79167 6.58333C9.63067 6.58333 9.5 6.322 9.5 6C9.5 5.678 9.63067 5.41667 9.79167 5.41667C9.95267 5.41667 10.0833 5.678 10.0833 6ZM9.79167 6H9.79789V6.01167H9.79167V6Z" stroke="#111111" stroke-width="1.5" stroke-linecap="round" stroke-linejoin="round"/>
</svg>
