<svg width="38" height="38" viewBox="0 0 38 38" fill="none" xmlns="http://www.w3.org/2000/svg">
<path d="M0 37.077V3.6155C0 2.60517 0.35 1.75 1.05 1.05C1.75 0.35 2.60517 0 3.6155 0H34.3845C35.3948 0 36.25 0.35 36.95 1.05C37.65 1.75 38 2.60517 38 3.6155V26.3845C38 27.3948 37.65 28.25 36.95 28.95C36.25 29.65 35.3948 30 34.3845 30H7.077L0 37.077ZM5.8 27H34.3845C34.5385 27 34.6795 26.9358 34.8075 26.8075C34.9358 26.6795 35 26.5385 35 26.3845V3.6155C35 3.4615 34.9358 3.3205 34.8075 3.1925C34.6795 3.06417 34.5385 3 34.3845 3H3.6155C3.4615 3 3.3205 3.06417 3.1925 3.1925C3.06417 3.3205 3 3.4615 3 3.6155V29.7695L5.8 27Z" fill="#9E9E9E"/>
</svg>
