<svg width="14" height="13" viewBox="0 0 14 13" fill="none" xmlns="http://www.w3.org/2000/svg">
<path d="M7 13L6.18671 12.249C4.96527 11.1109 3.95518 10.1328 3.15645 9.31496C2.35771 8.49694 1.72476 7.76893 1.25761 7.13092C0.790448 6.49303 0.464088 5.91109 0.278526 5.38508C0.0928422 4.85921 0 4.32558 0 3.78418C0 2.71011 0.352579 1.81086 1.05774 1.08644C1.76302 0.362146 2.63851 0 3.68421 0C4.32747 0 4.93537 0.154521 5.50789 0.463563C6.08042 0.772604 6.57779 1.2158 7 1.79314C7.42221 1.2158 7.91958 0.772604 8.49211 0.463563C9.06463 0.154521 9.67253 0 10.3158 0C11.3615 0 12.237 0.362146 12.9423 1.08644C13.6474 1.81086 14 2.71011 14 3.78418C14 4.32558 13.9072 4.85921 13.7215 5.38508C13.5359 5.91109 13.2096 6.49303 12.7424 7.13092C12.2752 7.76893 11.6435 8.49694 10.8471 9.31496C10.0508 10.1328 9.03952 11.1109 7.81329 12.249L7 13ZM7 11.4661C8.17895 10.3765 9.14912 9.44255 9.91053 8.66427C10.6719 7.88612 11.2737 7.21007 11.7158 6.63614C12.1579 6.0622 12.4649 5.55253 12.6368 5.10714C12.8088 4.66186 12.8947 4.22088 12.8947 3.78418C12.8947 3.02735 12.6491 2.39665 12.1579 1.89209C11.6667 1.38753 11.0526 1.13526 10.3158 1.13526C9.73393 1.13526 9.19616 1.30479 8.70247 1.64385C8.20891 1.98304 7.81808 2.45486 7.52997 3.05932H6.47003C6.17713 2.44994 5.78507 1.97692 5.29384 1.64025C4.80261 1.30359 4.26607 1.13526 3.68421 1.13526C2.95204 1.13526 2.33917 1.38753 1.84561 1.89209C1.35204 2.39665 1.10526 3.02735 1.10526 3.78418C1.10526 4.22088 1.19123 4.66186 1.36316 5.10714C1.53509 5.55253 1.84211 6.0622 2.28421 6.63614C2.72632 7.21007 3.32807 7.88492 4.08947 8.66068C4.85088 9.43643 5.82105 10.3716 7 11.4661Z" fill="#E0E0E0"/>
</svg>
