<svg width="8" height="7" viewBox="0 0 8 7" fill="none" xmlns="http://www.w3.org/2000/svg">
<path d="M4 7L3.53526 6.59563C2.8373 5.98278 2.26011 5.45615 1.80368 5.01575C1.34726 4.57528 0.985579 4.18327 0.718632 3.83973C0.451684 3.49625 0.265193 3.18289 0.159158 2.89966C0.0530527 2.6165 0 2.32916 0 2.03764C0 1.45929 0.201474 0.975078 0.604421 0.585006C1.00744 0.195002 1.50772 0 2.10526 0C2.47284 0 2.82021 0.0832036 3.14737 0.249611C3.47453 0.416018 3.75874 0.654659 4 0.965535C4.24126 0.654659 4.52547 0.416018 4.85263 0.249611C5.17979 0.0832036 5.52716 0 5.89474 0C6.49228 0 6.99256 0.195002 7.39558 0.585006C7.79853 0.975078 8 1.45929 8 2.03764C8 2.32916 7.94695 2.6165 7.84084 2.89966C7.73481 3.18289 7.54832 3.49625 7.28137 3.83973C7.01442 4.18327 6.6534 4.57528 6.19832 5.01575C5.7433 5.45615 5.16544 5.98278 4.46474 6.59563L4 7Z" fill="#F83BAA"/>
</svg>
